<?xml version="1.0" encoding="UTF-8" standalone="no" ?>
<!DOCTYPE svg PUBLIC "-//W3C//DTD SVG 1.1//EN" "http://www.w3.org/Graphics/SVG/1.1/DTD/svg11.dtd">
<svg xmlns="http://www.w3.org/2000/svg" xmlns:xlink="http://www.w3.org/1999/xlink" version="1.1" width="35" height="35" viewBox="0 0 35 35" xml:space="preserve">
<desc>Created with Fabric.js 5.3.0</desc>
<defs>
</defs>
<g transform="matrix(0.0975777752 0 0 0.0975777616 17.5 17.5)" id="MjbDOcKOFbG1PsIvDZgHj"  >
<g style="" vector-effect="non-scaling-stroke"   >
		<g transform="matrix(1 0 0 1 2 2.06205)" id="O29J-3eD7Pxd0NYk-rCp4"  >
<path style="stroke: none; stroke-width: 1; stroke-dasharray: none; stroke-linecap: butt; stroke-dashoffset: 0; stroke-linejoin: miter; stroke-miterlimit: 4; fill: rgb(0,0,0); fill-rule: nonzero; opacity: 1;" vector-effect="non-scaling-stroke"  transform=" translate(-388.14, -732.80655)" d="M 220.42 556.64 C 218.20399999999998 556.64 216.42 558.4256 216.42 560.64 L 216.42 904.98 C 216.42 907.1944 218.20399999999998 908.98 220.42 908.98 L 555.86 908.98 C 558.076 908.98 559.86 907.1944 559.86 904.98 L 559.86 597.54 L 556.5788 597.54 L 556.5788 584.3209999999999 L 559.86 584.3209999999999 L 559.86 578.8521999999999 L 533.298 556.6331999999999 L 526.173 556.6331999999999 L 526.173 557.7581999999999 L 497.485 557.7581999999999 L 496.1412 558.7581999999999 L 493.8287 560.4143999999999 L 493.8287 560.4455999999999 L 493.7975 560.4455999999999 L 261.13750000000005 560.4455999999999 L 261.13750000000005 556.6330999999999 L 220.41850000000005 556.6330999999999 z M 527.54 870.8 L 547.665 870.8 L 547.665 885.144 L 527.54 885.144 L 527.54 870.8 z" stroke-linecap="round" />
</g>
		<g transform="matrix(1 0 0 1 -2 -1.81595)" id="49Wn3PPQg8CB40MhpsLNS"  >
<path style="stroke: none; stroke-width: 1; stroke-dasharray: none; stroke-linecap: butt; stroke-dashoffset: 0; stroke-linejoin: miter; stroke-miterlimit: 4; fill: rgb(0,0,0); fill-rule: nonzero; opacity: 1;" vector-effect="non-scaling-stroke"  transform=" translate(-349.53, -744.10655)" d="M 181.81 567.94 C 179.594 567.94 177.81 569.7256000000001 177.81 571.94 L 177.81 916.28 C 177.81 918.4943999999999 179.594 920.28 181.81 920.28 L 517.25 920.28 C 519.466 920.28 521.25 918.4943999999999 521.25 916.28 L 521.25 608.8399999999999 L 517.9688 608.8399999999999 L 517.9688 595.6209999999999 L 521.25 595.6209999999999 L 521.25 590.1521999999999 L 494.688 567.9331999999998 L 487.563 567.9331999999998 L 487.563 569.0581999999998 L 458.875 569.0581999999998 L 457.5312 570.0581999999998 L 455.2187 571.7143999999998 L 455.2187 571.7455999999999 L 455.1875 571.7455999999999 L 222.5275 571.7455999999999 L 222.5275 567.9330999999999 L 181.8085 567.9330999999999 z M 488.93 882.1000000000001 L 509.055 882.1000000000001 L 509.055 896.4440000000002 L 488.93 896.4440000000002 L 488.93 882.1000000000001 z" stroke-linecap="round" />
</g>
		<g transform="matrix(1 0 0 1 -2.00127 74.7865)" id="Tz7panNWepRtVrxCRixAM"  >
<path style="stroke: none; stroke-width: 1; stroke-dasharray: none; stroke-linecap: butt; stroke-dashoffset: 0; stroke-linejoin: miter; stroke-miterlimit: 4; fill: rgb(255,0,0); fill-rule: nonzero; opacity: 0.6;" vector-effect="non-scaling-stroke"  transform=" translate(-130.57, -99.58)" d="M 0 199.16 L 0 0 L 261.14 0 L 261.14 199.16 z" stroke-linecap="round" />
</g>
		<g transform="matrix(1 0 0 1 -1.99821 -7.016)" id="UKZfpFGOBh05fgIIVUrrS"  >
<path style="stroke: none; stroke-width: 1; stroke-dasharray: none; stroke-linecap: butt; stroke-dashoffset: 0; stroke-linejoin: miter; stroke-miterlimit: 4; fill: rgb(255,255,255); fill-rule: nonzero; opacity: 1;" vector-effect="non-scaling-stroke"  transform=" translate(-129.045, -16.2575)" d="M 0 32.515 L 0 0 L 258.09 0 L 258.09 32.515 z" stroke-linecap="round" />
</g>
		<g transform="matrix(1 0 0 1 -1.99821 21.8675)" id="T22kQUUSBq_1ZiKtK7uVy"  >
<path style="stroke: none; stroke-width: 1; stroke-dasharray: none; stroke-linecap: butt; stroke-dashoffset: 0; stroke-linejoin: miter; stroke-miterlimit: 4; fill: rgb(255,255,255); fill-rule: nonzero; opacity: 1;" vector-effect="non-scaling-stroke"  transform=" translate(-129.045, -11.431)" d="M 0 22.862 L 0 0 L 258.09 0 L 258.09 22.862 z" stroke-linecap="round" />
</g>
		<g transform="matrix(1 0 0 1 -1.99821 45.9275)" id="n37Q_DLIFWanICua0x6bv"  >
<path style="stroke: none; stroke-width: 1; stroke-dasharray: none; stroke-linecap: butt; stroke-dashoffset: 0; stroke-linejoin: miter; stroke-miterlimit: 4; fill: rgb(255,255,255); fill-rule: nonzero; opacity: 1;" vector-effect="non-scaling-stroke"  transform=" translate(-129.045, -11.431)" d="M 0 22.862 L 0 0 L 258.09 0 L 258.09 22.862 z" stroke-linecap="round" />
</g>
		<g transform="matrix(1 0 0 1 -1.99821 69.9875)" id="FONYILqeqDY6KJtwGQM9F"  >
<path style="stroke: none; stroke-width: 1; stroke-dasharray: none; stroke-linecap: butt; stroke-dashoffset: 0; stroke-linejoin: miter; stroke-miterlimit: 4; fill: rgb(255,255,255); fill-rule: nonzero; opacity: 1;" vector-effect="non-scaling-stroke"  transform=" translate(-129.045, -11.431)" d="M 0 22.862 L 0 0 L 258.09 0 L 258.09 22.862 z" stroke-linecap="round" />
</g>
		<g transform="matrix(1 0 0 1 -1.99821 94.0375)" id="NKqn_kV9YP0e5wyBNl4GQ"  >
<path style="stroke: none; stroke-width: 1; stroke-dasharray: none; stroke-linecap: butt; stroke-dashoffset: 0; stroke-linejoin: miter; stroke-miterlimit: 4; fill: rgb(255,255,255); fill-rule: nonzero; opacity: 1;" vector-effect="non-scaling-stroke"  transform=" translate(-129.045, -11.431)" d="M 0 22.862 L 0 0 L 258.09 0 L 258.09 22.862 z" stroke-linecap="round" />
</g>
		<g transform="matrix(1 0 0 1 -1.99821 118.0975)" id="m50-enVxZELCcI00fYBn6"  >
<path style="stroke: none; stroke-width: 1; stroke-dasharray: none; stroke-linecap: butt; stroke-dashoffset: 0; stroke-linejoin: miter; stroke-miterlimit: 4; fill: rgb(255,255,255); fill-rule: nonzero; opacity: 1;" vector-effect="non-scaling-stroke"  transform=" translate(-129.045, -11.431)" d="M 0 22.862 L 0 0 L 258.09 0 L 258.09 22.862 z" stroke-linecap="round" />
</g>
		<g transform="matrix(1 0 0 1 -1.99821 142.1575)" id="hI8yeiDgM6-PLj3mrVUya"  >
<path style="stroke: none; stroke-width: 1; stroke-dasharray: none; stroke-linecap: butt; stroke-dashoffset: 0; stroke-linejoin: miter; stroke-miterlimit: 4; fill: rgb(255,255,255); fill-rule: nonzero; opacity: 1;" vector-effect="non-scaling-stroke"  transform=" translate(-129.045, -11.431)" d="M 0 22.862 L 0 0 L 258.09 0 L 258.09 22.862 z" stroke-linecap="round" />
</g>
		<g transform="matrix(1 0 0 1 6.66 -118.2805)" id="XNP33sJBj1PYwgobyuEBI"  >
<linearGradient id="SVGID_4" gradientUnits="userSpaceOnUse" gradientTransform="matrix(1 0 0 1 239.8 -24.387)"  x1="268" y1="632.76" x2="451.23" y2="632.76">
<stop offset="0%" style="stop-color:rgb(153,153,153);stop-opacity: 1"/>
<stop offset="32.745999999999995%" style="stop-color:rgb(236,236,236);stop-opacity: 1"/>
<stop offset="100%" style="stop-color:rgb(153,153,153);stop-opacity: 1"/>
</linearGradient>
<path style="stroke: none; stroke-width: 1; stroke-dasharray: none; stroke-linecap: butt; stroke-dashoffset: 0; stroke-linejoin: miter; stroke-miterlimit: 4; fill: url(#SVGID_4); fill-rule: nonzero; opacity: 1;" vector-effect="non-scaling-stroke"  transform=" translate(-597.99, -603.255)" d="M 505.02 543.3 L 505.02 657.2099999999999 C 505.02 660.5339999999999 507.69599999999997 663.2099999999999 511.02 663.2099999999999 L 684.96 663.2099999999999 C 688.284 663.2099999999999 690.96 660.5339999999999 690.96 657.2099999999999 L 690.96 543.3 L 505.02000000000004 543.3 z M 612.71 560.5809999999999 L 663.522 560.5809999999999 L 663.522 655.05 L 612.71 655.05 L 612.71 560.5809999999999 z" stroke-linecap="round" />
</g>
		<g transform="matrix(1 0 0 1 -114.31331 0.48495)" id="8YIcPfm6fRhOCyxAaNv03"  >
<path style="stroke: none; stroke-width: 1; stroke-dasharray: none; stroke-linecap: butt; stroke-dashoffset: 0; stroke-linejoin: miter; stroke-miterlimit: 4; fill: rgb(85,0,0); fill-rule: nonzero; opacity: 1;" vector-effect="non-scaling-stroke"  transform=" translate(-288.52769, -732.94325)" d="M 289.43 737.12 C 289.43 737.1656 289.4152 737.2066 289.3856 737.24304 C 289.356 737.27954 289.307 737.30914 289.23863 737.3319399999999 C 289.17023 737.3547399999999 289.07912 737.37294 288.96519 737.3866399999999 C 288.85125 737.4003399999999 288.70542 737.4071399999999 288.52769 737.4071399999999 C 288.35451 737.4071399999999 288.20982 737.40014 288.09361 737.3866399999999 C 287.97739 737.37294 287.88511 737.35474 287.81675 737.3319399999999 C 287.74835 737.30914 287.6994 737.2795399999999 287.66978 737.24304 C 287.64018 737.20664 287.62538 737.16554 287.62538 737.12 L 287.62538 728.7665 C 287.62538 728.7208999999999 287.64018 728.6799 287.66978 728.64346 C 287.69938 728.60696 287.74948 728.57736 287.82017 728.55456 C 287.89077000000003 728.5317600000001 287.98309 728.51356 288.09702000000004 728.49986 C 288.2109500000001 728.48616 288.35451000000006 728.47936 288.52769000000006 728.47936 C 288.70542000000006 728.47937 288.85125000000005 728.48636 288.96519000000006 728.49986 C 289.07912000000005 728.51356 289.17026000000004 728.53176 289.23863000000006 728.55456 C 289.3069300000001 728.57736 289.35597000000007 728.6069600000001 289.38560000000007 728.64346 C 289.4152000000001 728.67996 289.43000000000006 728.72096 289.43000000000006 728.7665 z" stroke-linecap="round" />
</g>
		<g transform="matrix(1 0 0 1 -107.817995 0.49454)" id="jmxjIwKt6x-967p7fIAfg"  >
<path style="stroke: none; stroke-width: 1; stroke-dasharray: none; stroke-linecap: butt; stroke-dashoffset: 0; stroke-linejoin: miter; stroke-miterlimit: 4; fill: rgb(85,0,0); fill-rule: nonzero; opacity: 1;" vector-effect="non-scaling-stroke"  transform=" translate(-295.023005, -732.95284)" d="M 298.67 736.74 C 298.67 736.84481 298.65180000000004 736.9382400000001 298.6153 737.02027 C 298.5788 737.10227 298.52979999999997 737.17066 298.46832 737.2253499999999 C 298.40682 737.28005 298.33388 737.31995 298.24957 737.34498 C 298.16527 737.3700799999999 298.07981 737.38258 297.99323 737.38258 L 297.2276 737.38258 C 297.06809 737.38258 296.93023 737.36668 296.81403 737.3346799999999 C 296.69781 737.30278 296.59071 737.2446799999999 296.49274 737.16037 C 296.39474 737.07607 296.30019000000004 736.9621199999999 296.20905000000005 736.8185699999999 C 296.11785000000003 736.6750099999999 296.01536000000004 736.4893099999999 295.90143000000006 736.2614399999999 L 293.70023000000003 732.1257399999998 C 293.57262000000003 731.8796499999999 293.44274 731.6141899999998 293.31058 731.3293499999999 C 293.17841000000004 731.0445299999999 293.05992000000003 730.7676699999998 292.95511 730.4987799999999 L 292.94141 730.4987799999999 C 292.95961 730.8269199999999 292.97331 731.1538999999999 292.98241 731.4797399999999 C 292.99141000000003 731.8055899999998 292.99611 732.1416899999999 292.99611 732.4880399999998 L 292.99611 737.1159399999998 C 292.9961 737.1615399999998 292.98361 737.2025399999998 292.95851 737.2389899999998 C 292.93341 737.2754899999999 292.89011 737.3061899999998 292.82862 737.3312899999999 C 292.76712 737.3563899999998 292.68393 737.3756899999998 292.57911 737.3893899999998 C 292.47429000000005 737.4030899999998 292.33985 737.4098899999998 292.17579 737.4098899999998 C 292.01629 737.4098899999998 291.88412 737.4028899999998 291.77931 737.3893899999998 C 291.67449 737.3756899999998 291.59246 737.3563899999998 291.53321 737.3312899999999 C 291.47401 737.3061899999999 291.43295 737.2754899999999 291.41017 737.2389899999998 C 291.38737 737.2024899999998 291.37597 737.1614899999998 291.37597 737.1159399999998 L 291.37597 729.1657399999998 C 291.37597 728.9515499999998 291.43867 728.7909099999998 291.56396 728.6837999999998 C 291.68928 728.5767199999998 291.84309 728.5231699999998 292.02538 728.5231599999998 L 292.98924999999997 728.5231599999998 C 293.16242 728.5231699999998 293.30825999999996 728.5379599999999 293.42674999999997 728.5675599999998 C 293.54524 728.5971599999998 293.65119 728.6461599999999 293.74462 728.7145299999999 C 293.83802 728.7829299999999 293.92577 728.8774699999999 294.0078 728.9982299999998 C 294.08979999999997 729.1189999999998 294.17413999999997 729.2682499999999 294.26072999999997 729.4459799999998 L 295.98342999999994 732.6793799999998 C 296.08367999999996 732.8753499999998 296.18280999999996 733.0678899999998 296.28078999999997 733.2570199999998 C 296.37879 733.4461499999998 296.47333 733.6352699999998 296.56447999999995 733.8243999999997 C 296.65557999999993 734.0135299999997 296.7444899999999 734.1992399999997 296.83108999999996 734.3815299999998 C 296.91769 734.5638199999999 297.00197999999995 734.7461099999998 297.08401999999995 734.9283999999998 L 297.09101999999996 734.9283999999998 C 297.07732 734.6093899999997 297.06711999999993 734.2767099999998 297.06021999999996 733.9303599999998 C 297.05321999999995 733.5839999999998 297.04992 733.2535999999999 297.04992 732.9391399999998 L 297.04992 728.7897399999998 C 297.04991 728.7441399999998 297.06361999999996 728.7031399999998 297.09092 728.6666899999998 C 297.11822 728.6301899999997 297.16382 728.5982899999998 297.22764 728.5709899999998 C 297.29144 728.5436899999999 297.37575 728.5242899999998 297.48057 728.5128899999999 C 297.58538 728.5014899999999 297.71982 728.4957899999998 297.88389 728.4957899999998 C 298.03883 728.4957999999998 298.16871000000003 728.5017899999998 298.27354 728.5128899999999 C 298.37835 728.5242899999998 298.45924 728.5436899999999 298.51621 728.5709899999998 C 298.57321 728.5982899999998 298.61301 728.6301899999999 298.63584 728.6666899999998 C 298.65864 728.7031899999998 298.67004 728.7441899999998 298.67004 728.7897399999998 z" stroke-linecap="round" />
</g>
		<g transform="matrix(1 0 0 1 -98.575335 0.49154)" id="V64eseMQfUYWbHaGnIt6x"  >
<path style="stroke: none; stroke-width: 1; stroke-dasharray: none; stroke-linecap: butt; stroke-dashoffset: 0; stroke-linejoin: miter; stroke-miterlimit: 4; fill: rgb(85,0,0); fill-rule: nonzero; opacity: 1;" vector-effect="non-scaling-stroke"  transform=" translate(-304.265665, -732.94984)" d="M 307.94 732.82 C 307.94 733.6312 307.83404 734.325 307.62212999999997 734.9015 C 307.41020999999995 735.4780000000001 307.10600999999997 735.9485000000001 306.70953999999995 736.3131000000001 C 306.31303999999994 736.6776900000001 305.83110999999997 736.9454300000001 305.2637399999999 737.1163200000001 C 304.69634999999994 737.28722 304.02073999999993 737.3726700000001 303.2368399999999 737.3726700000001 L 301.1245399999999 737.3726700000001 C 300.9741399999999 737.3726700000001 300.8476799999999 737.3282700000001 300.74513999999994 737.2393700000001 C 300.64259999999996 737.1504700000002 300.5913299999999 737.0058100000001 300.5913299999999 736.8052900000001 L 300.5913299999999 729.0943900000001 C 300.5913299999999 728.8938800000001 300.64262999999994 728.7491900000001 300.74513999999994 728.6603100000001 C 300.8476799999999 728.5714100000001 300.9741399999999 728.5270200000001 301.1245399999999 728.5270100000001 L 303.3940399999999 728.5270100000001 C 304.18243999999993 728.5270200000001 304.8512399999999 728.6193100000002 305.4003399999999 728.8038600000001 C 305.9494899999999 728.9884400000001 306.41203999999993 729.2618800000001 306.7880399999999 729.6241800000001 C 307.1640099999999 729.9864900000001 307.4499799999999 730.4342400000002 307.6459499999999 730.9674800000001 C 307.8418999999999 731.5006900000002 307.93988999999993 732.1181800000002 307.93988999999993 732.8199800000001 z M 306.0806 732.8815000000001 C 306.08059000000003 732.4622300000001 306.0316 732.0725900000001 305.93363 731.7126000000001 C 305.83563 731.3525800000001 305.67841 731.0404000000001 305.46195 730.7760700000001 C 305.24547 730.5117600000001 304.96748 730.3055400000001 304.62796000000003 730.1574200000001 C 304.28844000000004 730.0093200000001 303.84297000000004 729.9352600000001 303.29156 729.9352500000001 L 302.38238 729.9352500000001 L 302.38238 735.9508500000001 L 303.3189 735.9508500000001 C 303.81108 735.9508500000001 304.2258 735.88705 304.563 735.75944 C 304.90024 735.63184 305.18165 735.43929 305.40724 735.1818000000001 C 305.63282 734.9243200000001 305.80144 734.6041700000001 305.9131 734.22135 C 306.02475 733.83855 306.08056999999997 733.39193 306.08058 732.8815500000001 z" stroke-linecap="round" />
</g>
		<g transform="matrix(1 0 0 1 -90.80265 0.49297)" id="zPYB4sYhl_CGxnta6A8Gb"  >
<path style="stroke: none; stroke-width: 1; stroke-dasharray: none; stroke-linecap: butt; stroke-dashoffset: 0; stroke-linejoin: miter; stroke-miterlimit: 4; fill: rgb(85,0,0); fill-rule: nonzero; opacity: 1;" vector-effect="non-scaling-stroke"  transform=" translate(-312.03835, -732.95127)" d="M 314.66 736.67 C 314.65999000000005 736.80216 314.65400000000005 736.9126799999999 314.6429 737.00154 C 314.6315 737.09044 314.6144 737.16219 314.59159999999997 737.21688 C 314.56879999999995 737.27158 314.54029999999995 737.31148 314.50609999999995 737.3365 C 314.47189999999995 737.3616 314.43429999999995 737.3741 314.39330999999993 737.3741 L 309.94990999999993 737.3741 C 309.79950999999994 737.3741 309.67304999999993 737.3297 309.57050999999996 737.2408 C 309.46797 737.1519000000001 309.41669999999993 737.00724 309.41669999999993 736.80672 L 309.41669999999993 729.09582 C 309.41669999999993 728.89531 309.46799999999996 728.75062 309.57050999999996 728.66174 C 309.67304999999993 728.57284 309.79950999999994 728.52845 309.94990999999993 728.52844 L 314.36590999999993 728.52844 C 314.4069099999999 728.52845 314.4434099999999 728.53984 314.4752899999999 728.5626400000001 C 314.5071899999999 728.5854400000001 314.5344899999999 728.62534 314.5572899999999 728.6822700000001 C 314.5800899999999 728.7392700000001 314.5971899999999 728.8121600000002 314.60858999999994 728.9010200000001 C 314.6199899999999 728.9899200000001 314.62568999999996 729.1026900000002 314.62568999999996 729.2394000000002 C 314.62568 729.3670100000002 314.61969 729.4752400000002 314.60858999999994 729.5641000000002 C 314.59718999999996 729.6530000000001 314.5800899999999 729.7247600000002 314.5572899999999 729.7794400000001 C 314.5344899999999 729.8341400000002 314.5071899999999 729.8740400000002 314.4752899999999 729.8990600000002 C 314.4433899999999 729.9241600000001 314.4068899999999 729.9366600000002 314.36590999999993 729.9366600000002 L 311.2077099999999 729.9366600000002 L 311.2077099999999 732.0968600000002 L 313.8805099999999 732.0968600000002 C 313.9215099999999 732.0968600000002 313.9591099999999 732.1093600000003 313.9932999999999 732.1344600000002 C 314.0274999999999 732.1595600000002 314.0559999999999 732.1982600000002 314.07879999999994 732.2506700000002 C 314.10159999999996 732.3030700000003 314.11869999999993 732.3737200000003 314.13009999999997 732.4625800000002 C 314.14149999999995 732.5514800000002 314.1472 732.6596900000002 314.1472 732.7872900000002 C 314.1472 732.9194500000002 314.1412 733.0288300000002 314.13009999999997 733.1154100000002 C 314.1187 733.2020100000002 314.10159999999996 733.2715000000002 314.07879999999994 733.3239100000002 C 314.0559999999999 733.3763100000002 314.0274999999999 733.4139100000002 313.9932999999999 733.4367000000002 C 313.9590999999999 733.4595000000002 313.9214999999999 733.4709000000003 313.8805099999999 733.4709000000003 L 311.2077099999999 733.4709000000003 L 311.2077099999999 735.9660000000002 L 314.39330999999993 735.9660000000002 C 314.4343099999999 735.9660000000002 314.4719099999999 735.9785000000003 314.50609999999995 736.0036000000002 C 314.54029999999995 736.0287000000002 314.56879999999995 736.0685000000002 314.59159999999997 736.1232300000003 C 314.6144 736.1779300000003 314.63149999999996 736.2496900000002 314.6429 736.3385600000003 C 314.6543 736.4274600000002 314.66 736.5379400000003 314.66 736.6701000000003 z" stroke-linecap="round" />
</g>
		<g transform="matrix(1 0 0 1 -83.7024323029 0.485575)" id="hxEef-PI5ymEJ5QwLtSgt"  >
<path style="stroke: none; stroke-width: 1; stroke-dasharray: none; stroke-linecap: butt; stroke-dashoffset: 0; stroke-linejoin: miter; stroke-miterlimit: 4; fill: rgb(85,0,0); fill-rule: nonzero; opacity: 1;" vector-effect="non-scaling-stroke"  transform=" translate(-319.1385676971, -732.943875)" d="M 322.56 736.69 C 322.642 736.84951 322.69557 736.97711 322.72064 737.0728200000001 C 322.74574 737.1685200000001 322.73084 737.2414400000001 322.67624 737.2915700000001 C 322.62154 737.3416700000001 322.52242 737.3735700000001 322.37887 737.3872700000001 C 322.23531 737.40097 322.03593 737.40777 321.78073 737.40777 C 321.56653 737.40777 321.39791 737.40277 321.27487 737.39407 C 321.15182000000004 737.38507 321.05497 737.37017 320.98434000000003 737.3496700000001 C 320.91374 737.3291700000001 320.86243 737.3006700000001 320.83053 737.26417 C 320.79863 737.22767 320.77133000000003 737.18217 320.74853 737.1274500000001 L 319.08743000000004 733.93505 L 317.43313000000006 737.1274500000001 C 317.40583000000004 737.1821500000001 317.37613000000005 737.2277100000001 317.34423000000004 737.26417 C 317.31233000000003 737.3006700000001 317.26103000000006 737.32907 317.19043000000005 737.3496700000001 C 317.11983000000004 737.37017 317.02180000000004 737.3849700000001 316.89648000000005 737.39407 C 316.77115000000003 737.4030700000001 316.60595000000006 737.40777 316.40088000000003 737.40777 C 316.1639 737.40777 315.98046000000005 737.4007700000001 315.85058000000004 737.3872700000001 C 315.7207 737.3735700000001 315.63297000000006 737.34167 315.58740000000006 737.2915700000001 C 315.5418000000001 737.24147 315.53270000000003 737.1685200000001 315.56010000000003 737.0728200000001 C 315.58740000000006 736.9771200000001 315.6444 736.8495100000001 315.73099 736.69 L 317.85009 732.8277 L 315.88129000000004 729.1978 C 315.79929000000004 729.0337400000001 315.74344 728.90272 315.71381 728.8047300000001 C 315.68421 728.7067300000001 315.69561000000004 728.6338400000001 315.74801 728.5859800000001 C 315.80041 728.53818 315.89726 728.5084800000001 316.03854 728.4970800000001 C 316.17982 728.4856800000001 316.38034 728.4799800000001 316.6401 728.4799800000001 C 316.85429 728.47999 317.02405000000005 728.4849800000001 317.14938 728.49368 C 317.2747 728.50268 317.37383 728.5175800000001 317.44674000000003 728.53808 C 317.51964000000004 728.55858 317.57093000000003 728.58708 317.60055000000006 728.6235800000001 C 317.63015000000007 728.6600800000001 317.6586500000001 728.70558 317.68595000000005 728.7603 L 319.23775000000006 731.6861 L 320.74845000000005 728.7603 C 320.7757500000001 728.7056 320.80425 728.66004 320.83385000000004 728.6235800000001 C 320.86345000000006 728.5871800000001 320.91135 728.5586800000001 320.97741 728.53808 C 321.04351 728.5175800000001 321.13463 728.50278 321.25084000000004 728.49368 C 321.36705000000006 728.48468 321.52769000000006 728.4799800000001 321.73278000000005 728.4799800000001 C 321.96063000000004 728.47999 322.14065000000005 728.48598 322.27282 728.4970800000001 C 322.40497000000005 728.5084800000001 322.49612 728.5392800000001 322.54625000000004 728.5893800000001 C 322.59635000000003 728.6394800000002 322.60895000000005 728.7124300000002 322.58385000000004 728.8081300000001 C 322.55875000000003 728.9038300000001 322.50755000000004 729.0337200000001 322.43004 729.1977800000001 L 320.46124000000003 732.8071800000001 z" stroke-linecap="round" />
</g>
</g>
</g>
</svg>