<?xml version="1.0" encoding="UTF-8" standalone="no" ?>
<!DOCTYPE svg PUBLIC "-//W3C//DTD SVG 1.1//EN" "http://www.w3.org/Graphics/SVG/1.1/DTD/svg11.dtd">
<svg xmlns="http://www.w3.org/2000/svg" xmlns:xlink="http://www.w3.org/1999/xlink" version="1.1" width="27" height="27" viewBox="0 0 27 27" xml:space="preserve">
<desc>Created with Fabric.js 3.6.6</desc>
<defs>
</defs>
<g transform="matrix(1 0 0 1 248.89 45.49)"  >
<g style=""   >
		<g transform="matrix(1 0 0 1 0 0)"  >
<path style="stroke: rgb(0,0,0); stroke-width: 2; stroke-dasharray: none; stroke-linecap: round; stroke-dashoffset: 0; stroke-linejoin: round; stroke-miterlimit: 4; fill: none; fill-rule: nonzero; opacity: 1;"  transform=" translate(-13, -13)" d="M 13 24.25 C 19.2132 24.25 24.25 19.2132 24.25 13 C 24.25 6.7868 19.2132 1.75 13 1.75 C 6.7868 1.75 1.75 6.7868 1.75 13 C 1.75 19.2132 6.7868 24.25 13 24.25 Z" stroke-linecap="round" />
</g>
		<g transform="matrix(1 0 0 1 0.06 -1.69)"  >
<path style="stroke: rgb(0,0,0); stroke-width: 2; stroke-dasharray: none; stroke-linecap: round; stroke-dashoffset: 0; stroke-linejoin: round; stroke-miterlimit: 4; fill: none; fill-rule: nonzero; opacity: 1;"  transform=" translate(-6, -6.06)" d="M 6 10.75 C 8.58883 10.75 10.6875 8.65133 10.6875 6.0625 C 10.6875 3.47367 8.58883 1.375 6 1.375 C 3.41117 1.375 1.3125 3.47367 1.3125 6.0625 C 1.3125 8.65133 3.41117 10.75 6 10.75 Z" stroke-linecap="round" />
</g>
		<g transform="matrix(1 0 0 1 0.39 5.43)"  >
<path style="stroke: rgb(0,0,0); stroke-width: 2; stroke-dasharray: none; stroke-linecap: round; stroke-dashoffset: 0; stroke-linejoin: round; stroke-miterlimit: 4; fill: none; fill-rule: nonzero; opacity: 1;"  transform=" translate(-9, -4.06)" d="M 1.47656 6.36717 C 2.18193 4.97782 3.25823 3.81093 4.58618 2.99583 C 5.91413 2.18073 7.44185 1.74927 9 1.74927 C 10.5582 1.74927 12.0859 2.18073 13.4138 2.99583 C 14.7418 3.81093 15.8181 4.97782 16.5234 6.36717" stroke-linecap="round" />
</g>
</g>
</g>
<g transform="matrix(1 0 0 1 13.42 13.7)"  >
<path style="stroke: rgb(0,0,0); stroke-width: 2; stroke-dasharray: none; stroke-linecap: round; stroke-dashoffset: 0; stroke-linejoin: round; stroke-miterlimit: 4; fill: none; fill-rule: nonzero; opacity: 1;"  transform=" translate(-13, -13)" d="M 13 24.25 C 19.2132 24.25 24.25 19.2132 24.25 13 C 24.25 6.7868 19.2132 1.75 13 1.75 C 6.7868 1.75 1.75 6.7868 1.75 13 C 1.75 19.2132 6.7868 24.25 13 24.25 Z" stroke-linecap="round" />
</g>
<g transform="matrix(1 0 0 1 13.39 11.82)"  >
<path style="stroke: rgb(0,0,0); stroke-width: 2; stroke-dasharray: none; stroke-linecap: round; stroke-dashoffset: 0; stroke-linejoin: round; stroke-miterlimit: 4; fill: none; fill-rule: nonzero; opacity: 1;"  transform=" translate(-6, -6.06)" d="M 6 10.75 C 8.58883 10.75 10.6875 8.65133 10.6875 6.0625 C 10.6875 3.47367 8.58883 1.375 6 1.375 C 3.41117 1.375 1.3125 3.47367 1.3125 6.0625 C 1.3125 8.65133 3.41117 10.75 6 10.75 Z" stroke-linecap="round" />
</g>
<g transform="matrix(1 0 0 1 13.69 18.89)"  >
<path style="stroke: rgb(0,0,0); stroke-width: 2; stroke-dasharray: none; stroke-linecap: round; stroke-dashoffset: 0; stroke-linejoin: round; stroke-miterlimit: 4; fill: none; fill-rule: nonzero; opacity: 1;"  transform=" translate(-9, -4.06)" d="M 1.47656 6.36717 C 2.18193 4.97782 3.25823 3.81093 4.58618 2.99583 C 5.91413 2.18073 7.44185 1.74927 9 1.74927 C 10.5582 1.74927 12.0859 2.18073 13.4138 2.99583 C 14.7418 3.81093 15.8181 4.97782 16.5234 6.36717" stroke-linecap="round" />
</g>
</svg>