<svg width="28" height="28" viewBox="0 0 28 28" fill="none" xmlns="http://www.w3.org/2000/svg">
<path d="M23.2805 4.72056C22.0639 3.49194 20.6165 2.51581 19.0216 1.84824C17.4266 1.18068 15.7154 0.834831 13.9864 0.830576C12.2574 0.82632 10.5445 1.16374 8.94631 1.82345C7.34807 2.48315 5.89594 3.45215 4.67333 4.67476C3.45071 5.89737 2.48172 7.34951 1.82201 8.94774C1.1623 10.546 0.824886 12.2588 0.829141 13.9878C0.833397 15.7169 1.17924 17.428 1.84681 19.023C2.51438 20.618 3.49051 22.0653 4.71912 23.2819C5.9357 24.5105 7.38305 25.4866 8.97802 26.1542C10.573 26.8218 12.2841 27.1676 14.0132 27.1719C15.7422 27.1761 17.455 26.8387 19.0533 26.179C20.6515 25.5193 22.1036 24.5503 23.3263 23.3277C24.5489 22.1051 25.5179 20.6529 26.1776 19.0547C26.8373 17.4565 27.1747 15.7436 27.1704 14.0146C27.1662 12.2856 26.8203 10.5744 26.1528 8.97945C25.4852 7.38449 24.5091 5.93714 23.2805 4.72056ZM24.3123 14.0012C24.3145 16.2504 23.5775 18.4381 22.2146 20.2274L7.77362 5.78638C9.56295 4.42355 11.7506 3.68652 13.9998 3.68872C19.6863 3.68872 24.3123 8.31763 24.3123 14.0012ZM3.68729 14.0012C3.68509 11.752 4.42212 9.56438 5.78494 7.77505L20.226 22.2161C18.4366 23.5789 16.249 24.3159 13.9998 24.3137C8.31619 24.3137 3.68729 19.6878 3.68729 14.0012Z" fill="#FF6767"/>
</svg>
