<svg width="26" height="26" viewBox="0 0 26 26" fill="none" xmlns="http://www.w3.org/2000/svg">
<path fill-rule="evenodd" clip-rule="evenodd" d="M13 3C7.47715 3 3 7.47715 3 13C3 18.5228 7.47715 23 13 23C18.5228 23 23 18.5228 23 13C23 7.47715 18.5228 3 13 3ZM0.5 13C0.5 6.09644 6.09644 0.5 13 0.5C19.9036 0.5 25.5 6.09644 25.5 13C25.5 19.9036 19.9036 25.5 13 25.5C6.09644 25.5 0.5 19.9036 0.5 13ZM7.74112 7.74112C8.22927 7.25296 9.02073 7.25296 9.50888 7.74112L13 11.2322L16.4911 7.74112C16.9793 7.25296 17.7707 7.25296 18.2589 7.74112C18.747 8.22927 18.747 9.02073 18.2589 9.50888L14.7678 13L18.2589 16.4911C18.747 16.9793 18.747 17.7707 18.2589 18.2589C17.7707 18.747 16.9793 18.747 16.4911 18.2589L13 14.7678L9.50888 18.2589C9.02073 18.747 8.22927 18.747 7.74112 18.2589C7.25296 17.7707 7.25296 16.9793 7.74112 16.4911L11.2322 13L7.74112 9.50888C7.25296 9.02073 7.25296 8.22927 7.74112 7.74112Z" fill="#0D0D0D"/>
</svg>
