<?xml version="1.0" encoding="UTF-8" standalone="no" ?>
<!DOCTYPE svg PUBLIC "-//W3C//DTD SVG 1.1//EN" "http://www.w3.org/Graphics/SVG/1.1/DTD/svg11.dtd">
<svg xmlns="http://www.w3.org/2000/svg" xmlns:xlink="http://www.w3.org/1999/xlink" version="1.1" width="28" height="26" viewBox="0 0 28 26" xml:space="preserve">
<desc>Created with Fabric.js 5.3.0</desc>
<defs>
</defs>
<g transform="matrix(1 0 0 1 250 250)" id="HEc6Z55bRTYBFQ0p9e57M"  >
<path style="stroke: rgb(88,184,161); stroke-width: 3; stroke-dasharray: none; stroke-linecap: round; stroke-dashoffset: 0; stroke-linejoin: round; stroke-miterlimit: 4; fill: none; fill-rule: nonzero; opacity: 1;" vector-effect="non-scaling-stroke"  transform=" translate(-14.0002200258, -12.53118)" d="M 12.383 2.68755 L 2.07055 20.5001 C 1.90626 20.7846 1.81963 21.1073 1.81934 21.4359 C 1.81905 21.7645 1.9051 22.0874 2.06889 22.3722 C 2.23267 22.657 2.46843 22.8938 2.75255 23.0589 C 3.03666 23.2239 3.35916 23.3114 3.68773 23.3126 L 24.3127 23.3126 C 24.6413 23.3114 24.9638 23.2239 25.2479 23.0589 C 25.532 22.8938 25.7678 22.657 25.9316 22.3722 C 26.0954 22.0874 26.1814 21.7645 26.1811 21.4359 C 26.1808 21.1073 26.0942 20.7846 25.9299 20.5001 L 15.6174 2.68755 C 15.4544 2.40263 15.2189 2.16585 14.9349 2.00117 C 14.651 1.83649 14.3285 1.74976 14.0002 1.74976 C 13.672 1.74976 13.3495 1.83649 13.0655 2.00117 C 12.7815 2.16585 12.5461 2.40263 12.383 2.68755 L 12.383 2.68755 Z" stroke-linecap="round" />
</g>
<g transform="matrix(1 0 0 1 250 249.2385786802)" id="HdchUYZW-Or1AQdPmP2Wo"  >
<path style="stroke: rgb(88,184,161); stroke-width: 3; stroke-dasharray: none; stroke-linecap: round; stroke-dashoffset: 0; stroke-linejoin: round; stroke-miterlimit: 4; fill: none; fill-rule: nonzero; opacity: 1;" vector-effect="non-scaling-stroke"  transform=" translate(-2, -4.0625)" d="M 2 2.1875 L 2 5.9375" stroke-linecap="round" />
</g>
<g transform="matrix(1 0 0 1 250 256)" id="BMy1gqXxaFVHKEG3qsF0P"  >
<path style="stroke: none; stroke-width: 1; stroke-dasharray: none; stroke-linecap: butt; stroke-dashoffset: 0; stroke-linejoin: miter; stroke-miterlimit: 4; fill: rgb(88,184,161); fill-rule: nonzero; opacity: 1;" vector-effect="non-scaling-stroke"  transform=" translate(-2, -2.625)" d="M 2 4.5 C 3.03553 4.5 3.875 3.66053 3.875 2.625 C 3.875 1.58947 3.03553 0.75 2 0.75 C 0.964466 0.75 0.125 1.58947 0.125 2.625 C 0.125 3.66053 0.964466 4.5 2 4.5 Z" stroke-linecap="round" />
</g>
<g transform="matrix(1 0 0 1 260 260)" id="rKMH0rYFVqZZSgbfrGtvf"  >
<path style="stroke: rgb(88,184,161); stroke-width: 3; stroke-dasharray: none; stroke-linecap: round; stroke-dashoffset: 0; stroke-linejoin: round; stroke-miterlimit: 4; fill: none; fill-rule: nonzero; opacity: 1;" vector-effect="non-scaling-stroke"  transform=" translate(-14.0002200258, -12.53118)" d="M 12.383 2.68755 L 2.07055 20.5001 C 1.90626 20.7846 1.81963 21.1073 1.81934 21.4359 C 1.81905 21.7645 1.9051 22.0874 2.06889 22.3722 C 2.23267 22.657 2.46843 22.8938 2.75255 23.0589 C 3.03666 23.2239 3.35916 23.3114 3.68773 23.3126 L 24.3127 23.3126 C 24.6413 23.3114 24.9638 23.2239 25.2479 23.0589 C 25.532 22.8938 25.7678 22.657 25.9316 22.3722 C 26.0954 22.0874 26.1814 21.7645 26.1811 21.4359 C 26.1808 21.1073 26.0942 20.7846 25.9299 20.5001 L 15.6174 2.68755 C 15.4544 2.40263 15.2189 2.16585 14.9349 2.00117 C 14.651 1.83649 14.3285 1.74976 14.0002 1.74976 C 13.672 1.74976 13.3495 1.83649 13.0655 2.00117 C 12.7815 2.16585 12.5461 2.40263 12.383 2.68755 L 12.383 2.68755 Z" stroke-linecap="round" />
</g>
<g transform="matrix(1 0 0 1 260 259.2385786802)" id="EVab6CmTSKvnjA5NbFlhV"  >
<path style="stroke: rgb(88,184,161); stroke-width: 3; stroke-dasharray: none; stroke-linecap: round; stroke-dashoffset: 0; stroke-linejoin: round; stroke-miterlimit: 4; fill: none; fill-rule: nonzero; opacity: 1;" vector-effect="non-scaling-stroke"  transform=" translate(-2, -4.0625)" d="M 2 2.1875 L 2 5.9375" stroke-linecap="round" />
</g>
<g transform="matrix(1 0 0 1 260 266)" id="SiVuaoGAWuuayiDxixHXe"  >
<path style="stroke: none; stroke-width: 1; stroke-dasharray: none; stroke-linecap: butt; stroke-dashoffset: 0; stroke-linejoin: miter; stroke-miterlimit: 4; fill: rgb(88,184,161); fill-rule: nonzero; opacity: 1;" vector-effect="non-scaling-stroke"  transform=" translate(-2, -2.625)" d="M 2 4.5 C 3.03553 4.5 3.875 3.66053 3.875 2.625 C 3.875 1.58947 3.03553 0.75 2 0.75 C 0.964466 0.75 0.125 1.58947 0.125 2.625 C 0.125 3.66053 0.964466 4.5 2 4.5 Z" stroke-linecap="round" />
</g>
<g transform="matrix(1 0 0 1 276 202)" id="o6u9_Kd9gqJH_jeLc3Uyg"  >
<path style="stroke: rgb(88,184,161); stroke-width: 3; stroke-dasharray: none; stroke-linecap: round; stroke-dashoffset: 0; stroke-linejoin: round; stroke-miterlimit: 4; fill: none; fill-rule: nonzero; opacity: 1;" vector-effect="non-scaling-stroke"  transform=" translate(-14.0002200258, -12.53118)" d="M 12.383 2.68755 L 2.07055 20.5001 C 1.90626 20.7846 1.81963 21.1073 1.81934 21.4359 C 1.81905 21.7645 1.9051 22.0874 2.06889 22.3722 C 2.23267 22.657 2.46843 22.8938 2.75255 23.0589 C 3.03666 23.2239 3.35916 23.3114 3.68773 23.3126 L 24.3127 23.3126 C 24.6413 23.3114 24.9638 23.2239 25.2479 23.0589 C 25.532 22.8938 25.7678 22.657 25.9316 22.3722 C 26.0954 22.0874 26.1814 21.7645 26.1811 21.4359 C 26.1808 21.1073 26.0942 20.7846 25.9299 20.5001 L 15.6174 2.68755 C 15.4544 2.40263 15.2189 2.16585 14.9349 2.00117 C 14.651 1.83649 14.3285 1.74976 14.0002 1.74976 C 13.672 1.74976 13.3495 1.83649 13.0655 2.00117 C 12.7815 2.16585 12.5461 2.40263 12.383 2.68755 L 12.383 2.68755 Z" stroke-linecap="round" />
</g>
<g transform="matrix(1 0 0 1 276 201.2385786802)" id="ii9i7bxpI2z7pAIT3EbGC"  >
<path style="stroke: rgb(88,184,161); stroke-width: 3; stroke-dasharray: none; stroke-linecap: round; stroke-dashoffset: 0; stroke-linejoin: round; stroke-miterlimit: 4; fill: none; fill-rule: nonzero; opacity: 1;" vector-effect="non-scaling-stroke"  transform=" translate(-2, -4.0625)" d="M 2 2.1875 L 2 5.9375" stroke-linecap="round" />
</g>
<g transform="matrix(1 0 0 1 276 208)" id="4Vv9Ypyl4sEfrXTZ3zGLJ"  >
<path style="stroke: none; stroke-width: 1; stroke-dasharray: none; stroke-linecap: butt; stroke-dashoffset: 0; stroke-linejoin: miter; stroke-miterlimit: 4; fill: rgb(88,184,161); fill-rule: nonzero; opacity: 1;" vector-effect="non-scaling-stroke"  transform=" translate(-2, -2.625)" d="M 2 4.5 C 3.03553 4.5 3.875 3.66053 3.875 2.625 C 3.875 1.58947 3.03553 0.75 2 0.75 C 0.964466 0.75 0.125 1.58947 0.125 2.625 C 0.125 3.66053 0.964466 4.5 2 4.5 Z" stroke-linecap="round" />
</g>
<g transform="matrix(1 0 0 1 14 13)" id="jFWJ1rbBDmTTGxRlDTdya"  >
<path style="stroke: rgb(88,184,161); stroke-width: 3; stroke-dasharray: none; stroke-linecap: round; stroke-dashoffset: 0; stroke-linejoin: round; stroke-miterlimit: 4; fill: none; fill-rule: nonzero; opacity: 1;" vector-effect="non-scaling-stroke"  transform=" translate(-14.0002200258, -12.53118)" d="M 12.383 2.68755 L 2.07055 20.5001 C 1.90626 20.7846 1.81963 21.1073 1.81934 21.4359 C 1.81905 21.7645 1.9051 22.0874 2.06889 22.3722 C 2.23267 22.657 2.46843 22.8938 2.75255 23.0589 C 3.03666 23.2239 3.35916 23.3114 3.68773 23.3126 L 24.3127 23.3126 C 24.6413 23.3114 24.9638 23.2239 25.2479 23.0589 C 25.532 22.8938 25.7678 22.657 25.9316 22.3722 C 26.0954 22.0874 26.1814 21.7645 26.1811 21.4359 C 26.1808 21.1073 26.0942 20.7846 25.9299 20.5001 L 15.6174 2.68755 C 15.4544 2.40263 15.2189 2.16585 14.9349 2.00117 C 14.651 1.83649 14.3285 1.74976 14.0002 1.74976 C 13.672 1.74976 13.3495 1.83649 13.0655 2.00117 C 12.7815 2.16585 12.5461 2.40263 12.383 2.68755 L 12.383 2.68755 Z" stroke-linecap="round" />
</g>
<g transform="matrix(1 0 0 1 14 12.4036697248)" id="IlreB6rQNlIFsNyrypdoq"  >
<path style="stroke: rgb(88,184,161); stroke-width: 3; stroke-dasharray: none; stroke-linecap: round; stroke-dashoffset: 0; stroke-linejoin: round; stroke-miterlimit: 4; fill: none; fill-rule: nonzero; opacity: 1;" vector-effect="non-scaling-stroke"  transform=" translate(-2, -4.0625)" d="M 2 2.1875 L 2 5.9375" stroke-linecap="round" />
</g>
<g transform="matrix(1 0 0 1 14 19)" id="wbhBs08SkPb_5f13S6gbP"  >
<path style="stroke: none; stroke-width: 1; stroke-dasharray: none; stroke-linecap: butt; stroke-dashoffset: 0; stroke-linejoin: miter; stroke-miterlimit: 4; fill: rgb(88,184,161); fill-rule: nonzero; opacity: 1;" vector-effect="non-scaling-stroke"  transform=" translate(-2, -2.625)" d="M 2 4.5 C 3.03553 4.5 3.875 3.66053 3.875 2.625 C 3.875 1.58947 3.03553 0.75 2 0.75 C 0.964466 0.75 0.125 1.58947 0.125 2.625 C 0.125 3.66053 0.964466 4.5 2 4.5 Z" stroke-linecap="round" />
</g>
</svg>