<svg width="30" height="30" viewBox="0 0 30 30" fill="none" xmlns="http://www.w3.org/2000/svg">
<path d="M15 12.1875V15.9375" stroke="#FF6767" stroke-width="3" stroke-linecap="round" stroke-linejoin="round"/>
<path d="M13.383 4.68755L3.07055 22.5001C2.90626 22.7846 2.81963 23.1073 2.81934 23.4359C2.81905 23.7645 2.9051 24.0874 3.06889 24.3722C3.23267 24.657 3.46843 24.8938 3.75255 25.0589C4.03666 25.2239 4.35916 25.3114 4.68773 25.3126H25.3127C25.6413 25.3114 25.9638 25.2239 26.2479 25.0589C26.532 24.8938 26.7678 24.657 26.9316 24.3722C27.0954 24.0874 27.1814 23.7645 27.1811 23.4359C27.1808 23.1073 27.0942 22.7846 26.9299 22.5001L16.6174 4.68755C16.4544 4.40263 16.2189 4.16585 15.9349 4.00117C15.651 3.83649 15.3285 3.74976 15.0002 3.74976C14.672 3.74976 14.3495 3.83649 14.0655 4.00117C13.7815 4.16585 13.5461 4.40263 13.383 4.68755V4.68755Z" stroke="#FF6767" stroke-width="3" stroke-linecap="round" stroke-linejoin="round"/>
<path d="M15 22.5C16.0355 22.5 16.875 21.6605 16.875 20.625C16.875 19.5895 16.0355 18.75 15 18.75C13.9645 18.75 13.125 19.5895 13.125 20.625C13.125 21.6605 13.9645 22.5 15 22.5Z" fill="#FF6767"/>
</svg>
